<svg xmlns="http://www.w3.org/2000/svg" viewBox="0 0 512 512">
  <defs>
    <linearGradient id="grad" x1="0%" y1="0%" x2="100%" y2="100%">
      <stop offset="0%" style="stop-color:#4f46e5;stop-opacity:1" />
      <stop offset="100%" style="stop-color:#8b5cf6;stop-opacity:1" />
    </linearGradient>
  </defs>
  <circle cx="256" cy="256" r="240" fill="#111827" />
  <path fill="url(#grad)" d="M432 288c0 35.3-28.7 64-64 64H144c-35.3 0-64-28.7-64-64v-64c0-35.3 28.7-64 64-64h12.5c22.1 0 42.6 11.2 54.5 29.8l20.4 31.9c4 6.2 10.8 10 18.1 10H432v64zm-288 96c30.9 0 56-25.1 56-56s-25.1-56-56-56-56 25.1-56 56 25.1 56 56 56zm224 0c30.9 0 56-25.1 56-56s-25.1-56-56-56-56 25.1-56 56 25.1 56 56 56z"/>
</svg>
